<svg width="20" height="20" viewBox="0 0 20 20" fill="none" xmlns="http://www.w3.org/2000/svg">
<path d="M6 15.95C6.16667 15.9667 6.32917 15.9792 6.4875 15.9875C6.64583 15.9958 6.81667 16 7 16C7.18333 16 7.35417 15.9958 7.5125 15.9875C7.67083 15.9792 7.83333 15.9667 8 15.95V18H18V8H15.95C15.9667 7.83333 15.9792 7.67083 15.9875 7.5125C15.9958 7.35417 16 7.18333 16 7C16 6.81667 15.9958 6.64583 15.9875 6.4875C15.9792 6.32917 15.9667 6.16667 15.95 6H18C18.55 6 19.0208 6.19583 19.4125 6.5875C19.8042 6.97917 20 7.45 20 8V18C20 18.55 19.8042 19.0208 19.4125 19.4125C19.0208 19.8042 18.55 20 18 20H8C7.45 20 6.97917 19.8042 6.5875 19.4125C6.19583 19.0208 6 18.55 6 18V15.95ZM7 14C5.05 14 3.39583 13.3208 2.0375 11.9625C0.679167 10.6042 0 8.95 0 7C0 5.05 0.679167 3.39583 2.0375 2.0375C3.39583 0.679167 5.05 0 7 0C8.95 0 10.6042 0.679167 11.9625 2.0375C13.3208 3.39583 14 5.05 14 7C14 8.95 13.3208 10.6042 11.9625 11.9625C10.6042 13.3208 8.95 14 7 14ZM7 12C8.38333 12 9.5625 11.5125 10.5375 10.5375C11.5125 9.5625 12 8.38333 12 7C12 5.61667 11.5125 4.4375 10.5375 3.4625C9.5625 2.4875 8.38333 2 7 2C5.61667 2 4.4375 2.4875 3.4625 3.4625C2.4875 4.4375 2 5.61667 2 7C2 8.38333 2.4875 9.5625 3.4625 10.5375C4.4375 11.5125 5.61667 12 7 12Z" fill="#EA580C"/>
</svg>
